<?xml version="1.0" standalone="no"?>
<!DOCTYPE svg PUBLIC "-//W3C//DTD SVG 20010904//EN"
 "http://www.w3.org/TR/2001/REC-SVG-20010904/DTD/svg10.dtd">
<svg version="1.0" xmlns="http://www.w3.org/2000/svg"
 width="88.000000pt" height="88.000000pt" viewBox="0 0 88.000000 88.000000"
 preserveAspectRatio="xMidYMid meet">
<metadata>
Created by potrace 1.11, written by Peter Selinger 2001-2013
</metadata>
<g transform="translate(0.000000,88.000000) scale(0.100000,-0.100000)"
fill="#000000" stroke="none">
<path d="M0 760 c0 -66 2 -120 5 -120 2 0 9 17 15 38 6 23 23 46 45 62 39 28
47 50 26 66 -13 10 -13 15 2 37 9 15 17 29 17 32 0 3 -25 5 -55 5 l-55 0 0
-120z"/>
<path d="M477 840 c18 -46 22 -47 54 -21 l24 19 -25 21 c-14 11 -35 20 -47 21
-21 0 -21 -1 -6 -40z"/>
<path d="M525 872 c15 -16 65 -26 65 -13 0 6 -9 11 -19 11 -11 0 -28 3 -38 6
-12 5 -15 4 -8 -4z"/>
<path d="M610 870 c0 -12 24 -12 60 0 21 7 19 8 -17 9 -24 1 -43 -3 -43 -9z"/>
<path d="M804 851 c9 -16 26 -42 39 -57 13 -16 27 -36 30 -44 3 -8 6 18 6 58
l1 72 -45 0 -46 0 15 -29z"/>
<path d="M524 689 c-14 -16 -19 -37 -20 -85 0 -35 -5 -69 -11 -76 -6 -8 -7
-21 -2 -33 6 -17 8 -17 8 -3 1 19 41 34 66 25 8 -4 17 -2 20 3 9 15 97 60 106
54 5 -3 -11 -29 -36 -58 -38 -45 -43 -55 -31 -66 8 -6 22 -10 32 -8 17 3 64
79 64 103 0 8 5 15 10 15 6 0 10 7 10 15 0 14 -112 75 -138 75 -6 0 -21 14
-34 30 l-24 31 -20 -22z m92 -114 c-3 -9 -10 -13 -16 -10 -6 4 -5 11 3 20 15
16 22 11 13 -10z"/>
<path d="M415 633 c-4 -10 -9 -35 -11 -56 -2 -30 0 -36 11 -27 7 6 15 31 17
55 3 46 -4 58 -17 28z"/>
<path d="M845 560 c27 -12 43 -12 25 0 -8 5 -22 9 -30 9 -10 0 -8 -3 5 -9z"/>
<path d="M829 493 c-7 -42 -2 -58 21 -70 31 -16 34 -12 15 23 -8 16 -15 35
-15 42 0 13 -19 17 -21 5z"/>
<path d="M405 442 c-71 -21 -89 -30 -137 -73 -43 -40 -68 -49 -68 -26 -1 8 -5
6 -13 -4 -13 -17 -85 -53 -99 -51 -5 1 -8 -7 -8 -18 0 -26 53 -85 97 -107 46
-22 48 -30 23 -71 -16 -26 -24 -31 -34 -23 -7 6 -16 7 -20 3 -4 -4 -14 1 -21
11 -11 15 -17 16 -34 8 -34 -19 -51 -13 -51 17 l0 27 -20 -33 c-11 -18 -20
-48 -20 -67 l0 -35 54 0 c34 0 56 5 59 13 4 9 7 9 18 0 19 -18 135 -17 142 1
6 14 136 91 143 84 2 -2 -28 -25 -67 -51 l-71 -47 91 0 91 0 0 34 c0 19 4 46
10 60 9 24 14 26 69 26 64 0 66 -2 100 -93 10 -26 12 -27 96 -27 56 0 85 4 85
11 0 7 -11 9 -27 6 -40 -7 -53 2 -53 37 0 24 3 27 10 16 8 -13 10 -12 10 3 0
9 -4 17 -10 17 -15 0 -12 27 4 33 7 3 16 21 20 40 4 20 12 37 19 40 9 3 9 8
-2 20 -12 15 -11 17 2 17 10 0 14 6 11 13 -7 19 20 40 51 40 15 0 25 5 25 13
0 14 -11 18 -44 14 -10 -1 -15 3 -12 8 3 6 -1 23 -9 38 -8 16 -15 35 -15 42 0
22 -30 13 -42 -13 -6 -14 -15 -25 -21 -25 -5 0 -7 -6 -4 -14 3 -8 -1 -20 -10
-28 -14 -11 -16 -10 -10 13 7 26 6 27 -26 19 -17 -4 -48 -15 -68 -23 -19 -9
-44 -14 -55 -12 -10 2 -22 4 -25 4 -4 1 -10 16 -13 35 -6 32 -45 93 -46 72 0
-6 -6 -3 -12 6 -12 14 -18 14 -63 0z m342 -138 c-3 -3 -12 -4 -19 -1 -8 3 -5
6 6 6 11 1 17 -2 13 -5z m-417 -224 c-19 -13 -30 -13 -30 0 0 6 10 10 23 10
18 0 19 -2 7 -10z"/>
<path d="M145 440 c-4 -6 6 -10 22 -10 22 0 25 2 13 10 -19 12 -27 12 -35 0z"/>
<path d="M843 73 c-4 -10 -10 -20 -14 -23 -5 -3 -6 -16 -2 -28 7 -30 53 -31
53 -1 0 12 -4 18 -11 13 -8 -5 -10 3 -7 25 5 33 -8 43 -19 14z"/>
</g>
</svg>
